<mxfile host="app.diagrams.net" agent="Mozilla/5.0 (Macintosh; Intel Mac OS X 10_15_7) AppleWebKit/537.36 (KHTML, like Gecko) Chrome/134.0.0.0 Safari/537.36" version="26.1.1" pages="2">
  <diagram name="structure" id="OXlMnqH-0nABwhjFhdu1">
    <mxGraphModel dx="867" dy="661" grid="0" gridSize="10" guides="1" tooltips="1" connect="1" arrows="0" fold="1" page="0" pageScale="1" pageWidth="850" pageHeight="1100" background="none" math="0" shadow="1">
      <root>
        <mxCell id="0" />
        <mxCell id="1" parent="0" />
        <mxCell id="ZdRK3whLglbeDDrQPYsV-9" style="edgeStyle=orthogonalEdgeStyle;rounded=0;orthogonalLoop=1;jettySize=auto;html=1;exitX=0.5;exitY=1;exitDx=0;exitDy=0;entryX=0.5;entryY=0;entryDx=0;entryDy=0;endArrow=none;startFill=0;" edge="1" parent="1" source="ZdRK3whLglbeDDrQPYsV-2" target="ZdRK3whLglbeDDrQPYsV-3">
          <mxGeometry relative="1" as="geometry" />
        </mxCell>
        <mxCell id="ZdRK3whLglbeDDrQPYsV-10" style="edgeStyle=orthogonalEdgeStyle;rounded=0;orthogonalLoop=1;jettySize=auto;html=1;exitX=0.5;exitY=1;exitDx=0;exitDy=0;entryX=0.5;entryY=0;entryDx=0;entryDy=0;endArrow=none;startFill=0;" edge="1" parent="1" source="ZdRK3whLglbeDDrQPYsV-2" target="ZdRK3whLglbeDDrQPYsV-5">
          <mxGeometry relative="1" as="geometry" />
        </mxCell>
        <mxCell id="ZdRK3whLglbeDDrQPYsV-2" value="A" style="ellipse;whiteSpace=wrap;html=1;aspect=fixed;flipH=0;flipV=1;" vertex="1" parent="1">
          <mxGeometry x="432" y="303" width="36" height="36" as="geometry" />
        </mxCell>
        <mxCell id="ZdRK3whLglbeDDrQPYsV-3" value="B" style="ellipse;whiteSpace=wrap;html=1;aspect=fixed;flipH=0;flipV=1;" vertex="1" parent="1">
          <mxGeometry x="362" y="383" width="36" height="36" as="geometry" />
        </mxCell>
        <mxCell id="ZdRK3whLglbeDDrQPYsV-5" value="C" style="ellipse;whiteSpace=wrap;html=1;aspect=fixed;flipH=0;flipV=1;" vertex="1" parent="1">
          <mxGeometry x="512" y="383" width="36" height="36" as="geometry" />
        </mxCell>
        <mxCell id="ZdRK3whLglbeDDrQPYsV-17" style="edgeStyle=orthogonalEdgeStyle;rounded=0;orthogonalLoop=1;jettySize=auto;html=1;exitX=0.5;exitY=1;exitDx=0;exitDy=0;entryX=0.5;entryY=0;entryDx=0;entryDy=0;endArrow=none;startFill=0;" edge="1" parent="1" target="ZdRK3whLglbeDDrQPYsV-19" source="ZdRK3whLglbeDDrQPYsV-3">
          <mxGeometry relative="1" as="geometry">
            <mxPoint x="380" y="443" as="sourcePoint" />
          </mxGeometry>
        </mxCell>
        <mxCell id="ZdRK3whLglbeDDrQPYsV-18" style="edgeStyle=orthogonalEdgeStyle;rounded=0;orthogonalLoop=1;jettySize=auto;html=1;exitX=0.5;exitY=1;exitDx=0;exitDy=0;entryX=0.5;entryY=0;entryDx=0;entryDy=0;endArrow=none;startFill=0;" edge="1" parent="1" target="ZdRK3whLglbeDDrQPYsV-20" source="ZdRK3whLglbeDDrQPYsV-3">
          <mxGeometry relative="1" as="geometry">
            <mxPoint x="380" y="443" as="sourcePoint" />
          </mxGeometry>
        </mxCell>
        <mxCell id="ZdRK3whLglbeDDrQPYsV-19" value="D" style="ellipse;whiteSpace=wrap;html=1;aspect=fixed;flipH=0;flipV=1;" vertex="1" parent="1">
          <mxGeometry x="292" y="463" width="36" height="36" as="geometry" />
        </mxCell>
        <mxCell id="ZdRK3whLglbeDDrQPYsV-20" value="E" style="ellipse;whiteSpace=wrap;html=1;aspect=fixed;flipH=0;flipV=1;" vertex="1" parent="1">
          <mxGeometry x="442" y="463" width="36" height="36" as="geometry" />
        </mxCell>
        <mxCell id="ZdRK3whLglbeDDrQPYsV-54" style="edgeStyle=none;rounded=0;orthogonalLoop=1;jettySize=auto;html=1;exitX=0.5;exitY=1;exitDx=0;exitDy=0;entryX=0.5;entryY=0;entryDx=0;entryDy=0;endArrow=none;startFill=0;" edge="1" parent="1" source="ZdRK3whLglbeDDrQPYsV-30" target="ZdRK3whLglbeDDrQPYsV-31">
          <mxGeometry relative="1" as="geometry" />
        </mxCell>
        <mxCell id="ZdRK3whLglbeDDrQPYsV-30" value="A" style="ellipse;whiteSpace=wrap;html=1;aspect=fixed;flipH=0;flipV=1;" vertex="1" parent="1">
          <mxGeometry x="119" y="303" width="36" height="36" as="geometry" />
        </mxCell>
        <mxCell id="ZdRK3whLglbeDDrQPYsV-55" style="edgeStyle=none;rounded=0;orthogonalLoop=1;jettySize=auto;html=1;exitX=0.5;exitY=1;exitDx=0;exitDy=0;entryX=0.5;entryY=0;entryDx=0;entryDy=0;endArrow=none;startFill=0;" edge="1" parent="1" source="ZdRK3whLglbeDDrQPYsV-31" target="ZdRK3whLglbeDDrQPYsV-32">
          <mxGeometry relative="1" as="geometry" />
        </mxCell>
        <mxCell id="ZdRK3whLglbeDDrQPYsV-31" value="B" style="ellipse;whiteSpace=wrap;html=1;aspect=fixed;flipH=0;flipV=1;" vertex="1" parent="1">
          <mxGeometry x="119" y="383" width="36" height="36" as="geometry" />
        </mxCell>
        <mxCell id="ZdRK3whLglbeDDrQPYsV-32" value="C" style="ellipse;whiteSpace=wrap;html=1;aspect=fixed;flipH=0;flipV=1;" vertex="1" parent="1">
          <mxGeometry x="119" y="463" width="36" height="36" as="geometry" />
        </mxCell>
        <mxCell id="ZdRK3whLglbeDDrQPYsV-43" style="edgeStyle=none;rounded=0;orthogonalLoop=1;jettySize=auto;html=1;exitX=0;exitY=1;exitDx=0;exitDy=0;entryX=0.5;entryY=0;entryDx=0;entryDy=0;endArrow=none;startFill=0;" edge="1" parent="1">
          <mxGeometry relative="1" as="geometry">
            <mxPoint x="675.0020779386489" y="323.7279220613509" as="sourcePoint" />
            <mxPoint x="627.73" y="403" as="targetPoint" />
          </mxGeometry>
        </mxCell>
        <mxCell id="ZdRK3whLglbeDDrQPYsV-38" value="A" style="ellipse;whiteSpace=wrap;html=1;aspect=fixed;flipH=0;flipV=1;" vertex="1" parent="1">
          <mxGeometry x="665" y="293" width="36" height="36" as="geometry" />
        </mxCell>
        <mxCell id="ZdRK3whLglbeDDrQPYsV-44" style="edgeStyle=none;rounded=0;orthogonalLoop=1;jettySize=auto;html=1;exitX=1;exitY=1;exitDx=0;exitDy=0;entryX=0;entryY=0;entryDx=0;entryDy=0;endArrow=none;startFill=0;" edge="1" parent="1" source="ZdRK3whLglbeDDrQPYsV-39" target="ZdRK3whLglbeDDrQPYsV-41">
          <mxGeometry relative="1" as="geometry" />
        </mxCell>
        <mxCell id="ZdRK3whLglbeDDrQPYsV-39" value="B" style="ellipse;whiteSpace=wrap;html=1;aspect=fixed;flipH=0;flipV=1;" vertex="1" parent="1">
          <mxGeometry x="605" y="403" width="36" height="36" as="geometry" />
        </mxCell>
        <mxCell id="ZdRK3whLglbeDDrQPYsV-47" style="edgeStyle=none;rounded=0;orthogonalLoop=1;jettySize=auto;html=1;exitX=0.5;exitY=1;exitDx=0;exitDy=0;entryX=0.5;entryY=0;entryDx=0;entryDy=0;endArrow=none;startFill=0;" edge="1" parent="1" source="ZdRK3whLglbeDDrQPYsV-40" target="ZdRK3whLglbeDDrQPYsV-42">
          <mxGeometry relative="1" as="geometry" />
        </mxCell>
        <mxCell id="ZdRK3whLglbeDDrQPYsV-40" value="C" style="ellipse;whiteSpace=wrap;html=1;aspect=fixed;flipH=0;flipV=1;" vertex="1" parent="1">
          <mxGeometry x="755" y="329" width="36" height="36" as="geometry" />
        </mxCell>
        <mxCell id="ZdRK3whLglbeDDrQPYsV-41" value="D" style="ellipse;whiteSpace=wrap;html=1;aspect=fixed;flipH=0;flipV=1;" vertex="1" parent="1">
          <mxGeometry x="675" y="473" width="36" height="36" as="geometry" />
        </mxCell>
        <mxCell id="ZdRK3whLglbeDDrQPYsV-48" style="edgeStyle=none;rounded=0;orthogonalLoop=1;jettySize=auto;html=1;exitX=0;exitY=1;exitDx=0;exitDy=0;entryX=1;entryY=0;entryDx=0;entryDy=0;endArrow=none;startFill=0;" edge="1" parent="1" source="ZdRK3whLglbeDDrQPYsV-42" target="ZdRK3whLglbeDDrQPYsV-41">
          <mxGeometry relative="1" as="geometry" />
        </mxCell>
        <mxCell id="ZdRK3whLglbeDDrQPYsV-42" value="E" style="ellipse;whiteSpace=wrap;html=1;aspect=fixed;flipH=0;flipV=1;" vertex="1" parent="1">
          <mxGeometry x="765" y="417" width="36" height="36" as="geometry" />
        </mxCell>
        <mxCell id="ZdRK3whLglbeDDrQPYsV-45" value="" style="edgeStyle=none;orthogonalLoop=1;jettySize=auto;html=1;rounded=0;entryX=0;entryY=0.5;entryDx=0;entryDy=0;endArrow=none;startFill=0;" edge="1" parent="1" target="ZdRK3whLglbeDDrQPYsV-40">
          <mxGeometry width="80" relative="1" as="geometry">
            <mxPoint x="701" y="310.47" as="sourcePoint" />
            <mxPoint x="781" y="310.47" as="targetPoint" />
            <Array as="points" />
          </mxGeometry>
        </mxCell>
        <mxCell id="ZdRK3whLglbeDDrQPYsV-49" style="edgeStyle=none;rounded=0;orthogonalLoop=1;jettySize=auto;html=1;exitX=1;exitY=0.5;exitDx=0;exitDy=0;entryX=0;entryY=1;entryDx=0;entryDy=0;endArrow=none;startFill=0;" edge="1" parent="1" source="ZdRK3whLglbeDDrQPYsV-39" target="ZdRK3whLglbeDDrQPYsV-40">
          <mxGeometry relative="1" as="geometry">
            <mxPoint x="783" y="375" as="sourcePoint" />
            <mxPoint x="793" y="427" as="targetPoint" />
          </mxGeometry>
        </mxCell>
        <mxCell id="ZdRK3whLglbeDDrQPYsV-50" style="edgeStyle=none;rounded=0;orthogonalLoop=1;jettySize=auto;html=1;entryX=0;entryY=0;entryDx=0;entryDy=0;endArrow=none;startFill=0;exitX=0.775;exitY=0.072;exitDx=0;exitDy=0;exitPerimeter=0;" edge="1" parent="1" source="ZdRK3whLglbeDDrQPYsV-38" target="ZdRK3whLglbeDDrQPYsV-42">
          <mxGeometry relative="1" as="geometry">
            <mxPoint x="683" y="348" as="sourcePoint" />
            <mxPoint x="775.2720779386641" y="420.2720779386643" as="targetPoint" />
          </mxGeometry>
        </mxCell>
        <mxCell id="ZdRK3whLglbeDDrQPYsV-51" value="线性结构" style="text;html=1;align=center;verticalAlign=middle;resizable=0;points=[];autosize=1;strokeColor=none;fillColor=none;" vertex="1" parent="1">
          <mxGeometry x="104" y="528" width="66" height="26" as="geometry" />
        </mxCell>
        <mxCell id="ZdRK3whLglbeDDrQPYsV-52" value="树形结构" style="text;html=1;align=center;verticalAlign=middle;resizable=0;points=[];autosize=1;strokeColor=none;fillColor=none;" vertex="1" parent="1">
          <mxGeometry x="387" y="528" width="66" height="26" as="geometry" />
        </mxCell>
        <mxCell id="ZdRK3whLglbeDDrQPYsV-53" value="图形结构" style="text;html=1;align=center;verticalAlign=middle;resizable=0;points=[];autosize=1;strokeColor=none;fillColor=none;" vertex="1" parent="1">
          <mxGeometry x="670" y="532" width="66" height="26" as="geometry" />
        </mxCell>
      </root>
    </mxGraphModel>
  </diagram>
  <diagram id="TLy7mB0zSVJmggWJv6Fy" name="DSA">
    <mxGraphModel dx="1230" dy="632" grid="0" gridSize="10" guides="1" tooltips="1" connect="1" arrows="1" fold="1" page="0" pageScale="1" pageWidth="850" pageHeight="1100" math="0" shadow="0">
      <root>
        <mxCell id="0" />
        <mxCell id="1" parent="0" />
        <mxCell id="OdBRVGuReUr3DkIy6bNT-1" value="输入&lt;div&gt;input&lt;/div&gt;" style="rounded=1;whiteSpace=wrap;html=1;fontSize=14;" vertex="1" parent="1">
          <mxGeometry x="-57" y="109" width="120" height="60" as="geometry" />
        </mxCell>
        <mxCell id="OdBRVGuReUr3DkIy6bNT-2" value="输出&lt;div&gt;output&lt;/div&gt;" style="rounded=1;whiteSpace=wrap;html=1;fontSize=14;" vertex="1" parent="1">
          <mxGeometry x="338" y="109" width="120" height="60" as="geometry" />
        </mxCell>
        <mxCell id="OdBRVGuReUr3DkIy6bNT-3" value="算法&lt;div&gt;Algorithm&lt;/div&gt;" style="rounded=1;whiteSpace=wrap;html=1;fontSize=14;" vertex="1" parent="1">
          <mxGeometry x="121" y="96.5" width="159" height="85" as="geometry" />
        </mxCell>
        <mxCell id="OdBRVGuReUr3DkIy6bNT-4" value="数据结构&lt;div&gt;Data Structure&lt;/div&gt;" style="rounded=1;whiteSpace=wrap;html=1;fontSize=14;" vertex="1" parent="1">
          <mxGeometry x="-61.5" y="237" width="524" height="60" as="geometry" />
        </mxCell>
        <mxCell id="OdBRVGuReUr3DkIy6bNT-7" value="" style="shape=flexArrow;endArrow=classic;html=1;rounded=0;fontSize=14;width=8;fillColor=#bac8d3;strokeColor=#23445d;" edge="1" parent="1">
          <mxGeometry width="50" height="50" relative="1" as="geometry">
            <mxPoint x="5.750000000000227" y="228.99999999999977" as="sourcePoint" />
            <mxPoint x="5.750000000000227" y="183.99999999999977" as="targetPoint" />
          </mxGeometry>
        </mxCell>
        <mxCell id="OdBRVGuReUr3DkIy6bNT-8" value="" style="shape=flexArrow;endArrow=classic;html=1;rounded=0;fontSize=14;width=8;fillColor=#bac8d3;strokeColor=#23445d;" edge="1" parent="1">
          <mxGeometry width="50" height="50" relative="1" as="geometry">
            <mxPoint x="400.75" y="230" as="sourcePoint" />
            <mxPoint x="400.75" y="185" as="targetPoint" />
          </mxGeometry>
        </mxCell>
        <mxCell id="OdBRVGuReUr3DkIy6bNT-9" value="" style="endArrow=classic;html=1;rounded=0;" edge="1" parent="1">
          <mxGeometry width="50" height="50" relative="1" as="geometry">
            <mxPoint x="69" y="140" as="sourcePoint" />
            <mxPoint x="106" y="140" as="targetPoint" />
          </mxGeometry>
        </mxCell>
        <mxCell id="OdBRVGuReUr3DkIy6bNT-10" value="" style="endArrow=classic;html=1;rounded=0;" edge="1" parent="1">
          <mxGeometry width="50" height="50" relative="1" as="geometry">
            <mxPoint x="291" y="138.5" as="sourcePoint" />
            <mxPoint x="328" y="138.5" as="targetPoint" />
          </mxGeometry>
        </mxCell>
        <mxCell id="OdBRVGuReUr3DkIy6bNT-11" value="" style="shape=flexArrow;endArrow=classic;html=1;rounded=0;fontSize=14;width=8;fillColor=#bac8d3;strokeColor=#23445d;" edge="1" parent="1">
          <mxGeometry width="50" height="50" relative="1" as="geometry">
            <mxPoint x="200.19" y="230" as="sourcePoint" />
            <mxPoint x="200.19" y="185" as="targetPoint" />
          </mxGeometry>
        </mxCell>
      </root>
    </mxGraphModel>
  </diagram>
</mxfile>
